<svg width="49" height="48" viewBox="0 0 49 48" fill="none" xmlns="http://www.w3.org/2000/svg">
<circle cx="24.5" cy="26" r="3" fill="#FFA100"/>
<path d="M30.5 6L42.5 14" stroke="#FFA100" stroke-width="3" stroke-linejoin="round"/>
<path d="M18.5 6L6.5 14" stroke="#FFA100" stroke-width="3" stroke-linejoin="round"/>
<path d="M24.5 11V11C16.2157 11 9.5 17.7157 9.5 26V26M24.5 11V11C32.7843 11 39.5 17.7157 39.5 26V26M24.5 11V16M9.5 26V26C9.5 34.2843 16.2157 41 24.5 41V41M9.5 26H14.5M39.5 26V26C39.5 34.2843 32.7843 41 24.5 41V41M39.5 26H34.5M24.5 41V36" stroke="#1A1A1A" stroke-width="2" stroke-linejoin="round"/>
</svg>
