<svg width="49" height="48" viewBox="0 0 49 48" fill="none" xmlns="http://www.w3.org/2000/svg">
<path d="M18.332 36V7" stroke="#FFA100" stroke-width="2" stroke-linejoin="round" stroke-dasharray="4 4"/>
<path fill-rule="evenodd" clip-rule="evenodd" d="M17.8188 7.41201C18.1255 7.24689 18.4959 7.25321 18.7968 7.4287L28.8595 13.2987C29.7621 13.8251 30.8735 13.8441 31.7935 13.3487L40.8579 8.46786C41.5242 8.10912 42.332 8.59166 42.332 9.34833V34.8053C42.332 35.1732 42.13 35.5114 41.8061 35.6858L30.8453 41.5878C30.5386 41.7529 30.1681 41.7466 29.8673 41.5711L19.8045 35.7011C18.902 35.1747 17.7906 35.1557 16.8706 35.6511L7.80613 40.5319C7.1399 40.8907 6.33203 40.4081 6.33203 39.6515V14.1945C6.33203 13.8266 6.53402 13.4884 6.85793 13.314L17.8188 7.41201ZM19.8045 5.70114C18.902 5.17467 17.7906 5.1557 16.8706 5.65107L5.90973 11.5531C4.938 12.0763 4.33203 13.0908 4.33203 14.1945V39.6515C4.33203 41.9215 6.75564 43.3691 8.75433 42.2929L17.8188 37.412C18.1255 37.2469 18.4959 37.2532 18.7968 37.4287L28.8595 43.2987C29.7621 43.8251 30.8735 43.8441 31.7935 43.3487L42.7543 37.4467C43.7261 36.9235 44.332 35.909 44.332 34.8053V9.34833C44.332 7.07831 41.9084 5.6307 39.9097 6.70692L30.8453 11.5878C30.5386 11.7529 30.1681 11.7466 29.8673 11.5711L19.8045 5.70114Z" fill="#1A1A1A"/>
</svg>
