<svg width="400" height="202" viewBox="0 0 400 202" fill="none" xmlns="http://www.w3.org/2000/svg">
<path d="M93.5826 146.529H114.073V129.899H123.575V111.042H114.073V84.3159H93.5826V111.042H70.2714L103.976 39.6237H80.8134L47.1086 111.042V129.899H93.5826V146.529Z" fill="#FFC700"/>
<path d="M181.072 148.756C188.99 148.756 195.919 147.098 201.859 143.782C207.798 140.466 212.425 135.838 215.741 129.899C219.057 123.96 220.715 117.031 220.715 109.112V77.0404C220.715 69.1215 219.057 62.1925 215.741 56.2533C212.425 50.3142 207.798 45.6866 201.859 42.3705C195.919 39.0545 188.99 37.3965 181.072 37.3965C173.153 37.3965 166.224 39.0545 160.284 42.3705C154.345 45.6866 149.718 50.3142 146.402 56.2533C143.086 62.1925 141.428 69.1215 141.428 77.0404V109.112C141.428 117.031 143.086 123.96 146.402 129.899C149.718 135.838 154.345 140.466 160.284 143.782C166.224 147.098 173.153 148.756 181.072 148.756ZM181.072 129.602C177.508 129.602 174.291 128.761 171.42 127.078C168.55 125.395 166.273 123.118 164.59 120.248C162.908 117.377 162.066 114.16 162.066 110.597V75.4071C162.066 71.8436 162.908 68.6266 164.59 65.756C166.273 62.8854 168.55 60.6087 171.42 58.9259C174.291 57.2432 177.508 56.4018 181.072 56.4018C184.635 56.4018 187.852 57.2432 190.723 58.9259C193.593 60.6087 195.87 62.8854 197.553 65.756C199.236 68.6266 200.077 71.8436 200.077 75.4071V110.597C200.077 114.16 199.236 117.377 197.553 120.248C195.87 123.118 193.593 125.395 190.723 127.078C187.852 128.761 184.635 129.602 181.072 129.602Z" fill="#FFC700"/>
<path d="M284.981 146.529H305.472V129.899H314.974V111.042H305.472V84.3159H284.981V111.042H261.67L295.375 39.6237H272.212L238.507 111.042V129.899H284.981V146.529Z" fill="#FFC700"/>
<path d="M166.029 148.889C167.883 150.265 171.668 152.074 177.385 154.316C177.883 154.511 178.433 154.536 178.96 154.444C180.122 154.242 182.189 153.998 185.16 153.711C185.83 153.711 187.657 153.147 190.642 152.019C190.921 151.914 191.22 151.867 191.516 151.826C193.813 151.512 197.622 148.901 202.944 143.994C203.292 143.673 203.527 143.253 203.676 142.803C203.863 142.235 204.082 141.782 204.331 141.444C204.894 140.68 205.884 140.15 206.3 139.297C208.133 135.533 209.527 133.215 210.481 132.342C212.345 130.175 214.112 126.573 215.784 121.536C215.852 121.332 215.943 121.141 216.059 120.959C220.926 113.329 226.053 97.5672 231.438 73.6748C231.478 73.4981 231.498 73.3152 231.498 73.1341V70.0869C231.498 69.5306 231.687 68.9908 232.035 68.5561L232.304 68.2193C232.495 67.9796 232.599 67.6819 232.599 67.3751C232.599 63.5264 230.798 58.888 227.195 53.4597C225.273 50.7237 223.788 48.9979 222.74 48.2823C222.192 47.9082 221.532 47.6299 221.058 47.165C218.495 44.6496 216.19 43.0805 214.146 42.458C213.938 42.3947 213.734 42.5546 213.734 42.772C213.734 43.0043 213.503 43.1661 213.285 43.0872L204.057 39.7542C203.675 39.6164 203.265 39.5753 202.864 39.6347L201.409 39.8501C200.689 39.9566 199.944 39.7382 199.255 39.5038C197.692 38.972 194.655 38.5419 190.146 38.2137C189.778 38.1869 189.457 38.5555 189.094 38.6242C188.997 38.6425 188.868 38.6159 188.778 38.575C188.302 38.3585 187.781 38.2278 187.214 38.1831C186.965 38.1635 186.762 38.3682 186.762 38.618C186.762 38.8678 186.559 39.0704 186.309 39.0704H185.27C185.197 39.0704 185.123 39.0759 185.05 39.0868C182.279 39.5022 180.281 39.975 179.057 40.5051C177.948 40.9851 176.724 42.0075 175.533 42.2047C169.26 43.243 165.003 44.2085 162.761 45.1013C161.502 45.6026 159.753 46.4506 158.484 46.9246C156.889 47.5202 155.723 48.7795 154.986 50.7024C149.581 65.6087 146.879 81.9942 146.879 99.8587V101.28C146.879 109.006 147.963 117.048 150.132 125.406C150.734 128.353 151.893 131.015 153.61 133.392C153.789 133.64 153.926 133.916 154.014 134.209C155.036 137.61 156.522 140.027 158.474 141.461C158.647 141.589 158.811 141.731 158.952 141.894C160.574 143.755 161.877 145.127 162.862 146.011C163.798 146.85 165.019 148.139 166.029 148.889Z" stroke="#1A1A1A" stroke-width="3.67962" stroke-linecap="round" stroke-linejoin="round"/>
<path d="M175.345 123.662C176.464 124.311 178.183 125.094 180.501 126.011C180.998 126.208 181.549 126.237 182.078 126.159C182.757 126.059 183.787 125.942 185.169 125.809C185.528 125.809 186.482 125.519 188.033 124.94C188.312 124.835 188.611 124.791 188.902 124.727C190.166 124.448 192.155 123.07 194.868 120.593C195.192 120.298 195.46 119.697 195.654 119.304C196.042 118.516 196.796 118.072 197.189 117.287C198.086 115.498 198.777 114.382 199.263 113.938C200.283 112.753 201.252 110.798 202.169 108.071C202.237 107.867 202.33 107.674 202.444 107.492C205.123 103.221 207.941 94.545 210.9 81.4641C210.94 81.2872 210.961 81.1042 210.961 80.9227V79.3645C210.961 79.047 211.069 78.739 211.267 78.4911L211.409 78.3138C211.516 78.1807 211.574 78.0153 211.574 77.8449C211.574 75.7068 210.571 73.1298 208.566 70.1141C207.699 68.8826 206.992 68.0194 206.444 67.5247C205.953 67.0803 205.302 66.7524 204.818 66.2992C203.523 65.0865 202.351 64.3207 201.302 64.002C201.186 63.9668 201.073 64.0557 201.073 64.1766C201.073 64.3056 200.945 64.3955 200.824 64.3518L195.943 62.5925C195.563 62.4552 195.154 62.4143 194.753 62.4734L194.715 62.4791C194.009 62.5834 193.259 62.4003 192.563 62.2306L192.525 62.2214C191.574 61.9893 190.046 61.7969 187.944 61.6441C187.739 61.6292 187.56 61.8341 187.358 61.8722C187.305 61.8823 187.233 61.8676 187.183 61.8449C186.918 61.7245 186.627 61.6519 186.311 61.6271C186.173 61.6162 186.06 61.7299 186.06 61.8687C186.06 62.0075 185.948 62.1201 185.809 62.1201H185.23C185.19 62.1201 185.148 62.1231 185.108 62.1291C184.109 62.2786 183.29 62.4414 182.652 62.6176C181.488 62.9393 180.082 63.8106 178.892 64.0167C176.652 64.4045 174.933 64.7735 173.734 65.1238C172.434 65.5037 170.409 66.1425 169.392 67.038C168.964 67.4153 168.624 67.9301 168.374 68.5823C165.366 76.8636 163.862 85.9666 163.862 95.8914V96.6812C163.862 100.973 164.465 105.441 165.672 110.084C165.993 111.653 166.599 113.075 167.488 114.353C167.664 114.604 167.801 114.88 167.894 115.172C168.439 116.892 169.208 118.141 170.201 118.917C170.37 119.05 170.534 119.191 170.676 119.352C171.195 119.943 171.653 120.442 172.051 120.849C172.931 121.747 174.257 123.032 175.345 123.662Z" stroke="#1A1A1A" stroke-width="3.67962" stroke-linecap="round" stroke-linejoin="round"/>
<path d="M286.518 166.349C286.309 166.992 285.789 167.555 285.113 167.555H284.825C284.171 167.555 283.639 167.358 283.345 166.774V166.774C283.117 166.321 282.435 165.797 281.938 165.898L281.609 165.965C280.955 166.099 280.278 165.829 279.952 165.246C278.903 163.368 278.061 160.877 277.427 157.773C277.42 157.739 277.417 157.691 277.419 157.656V157.656C277.443 157.322 277.759 156.953 277.683 156.627L277.452 155.63C277.428 155.531 277.417 155.433 277.417 155.331C277.463 147.275 281.155 132.21 288.494 110.136C288.535 110.012 288.444 109.882 288.313 109.882V109.882C288.207 109.882 288.109 109.968 288.053 110.058C287.627 110.742 285.228 112.729 280.854 116.017C280.354 116.394 279.957 116.947 279.505 117.38C278.799 118.056 277.438 119.035 275.424 120.316C274.707 120.772 274.338 121.618 273.889 122.34C273.332 123.234 272.155 123.974 270.357 124.558C269.263 124.913 267.876 125.636 266.887 126.224C266.724 126.322 266.547 126.425 266.358 126.534C265.993 126.744 265.578 126.852 265.157 126.852H261.318C261.046 126.852 259.894 127.145 257.862 127.732C257.788 127.753 257.71 127.765 257.633 127.765V127.765C257.416 127.765 257.208 127.677 257.047 127.53C255.966 126.549 254.36 125.676 252.228 124.909C251.747 124.736 251.312 124.436 251.053 123.996C250.728 123.442 250.447 122.819 250.212 122.127C249.833 121.015 248.791 119.988 248.142 119.009C247.494 118.031 246.855 116.438 246.223 114.23C246.162 114.016 246.132 113.794 246.132 113.572V111.21C246.132 102.223 250.949 88.4048 260.584 69.7559C260.765 69.4064 260.888 69.0196 261.023 68.6501C261.671 66.875 264.273 61.3124 268.829 51.9623C268.883 51.8519 268.93 51.7347 268.967 51.6176C269.745 49.1539 270.464 47.3627 271.123 46.2441C271.407 45.7617 271.574 45.2136 271.727 44.6751C272.097 43.3789 273.324 42.2065 275.41 41.1579C275.556 41.0847 275.717 41.0481 275.881 41.0481H276.59C276.795 41.0481 276.93 41.2458 277.075 41.3904V41.3904C277.219 41.5351 277.417 41.3387 277.417 41.1341V41.0481C277.417 40.7961 277.622 40.5885 277.872 40.6168C278.181 40.6517 278.473 40.7228 278.748 40.8303C279.04 40.9441 279.478 40.8993 279.768 40.7814V40.7814C280.235 40.5917 280.71 40.9684 281.151 41.2108C281.628 41.4723 282.378 41.7619 283.402 42.0798C284.125 42.3043 284.725 42.8259 285 43.5317C285.587 45.0436 285.881 46.0137 285.881 46.442C285.881 48.5036 285.32 50.0043 284.198 50.944C283.856 51.2311 283.528 51.5468 283.318 51.9416C280.781 56.7087 279.139 60.2673 278.392 62.6174C278.321 62.8417 278.281 63.0776 278.339 63.3056C278.341 63.3127 278.343 63.3199 278.344 63.3271C278.515 63.9685 278.629 64.6367 278.418 65.2659C276.032 72.3694 272.177 82.4732 266.852 95.5771C266.733 95.8707 266.675 96.187 266.655 96.5032C266.532 98.372 265.698 100.372 264.151 102.504C264.034 102.665 263.934 102.838 263.859 103.022C263.097 104.891 262.451 107.088 261.922 109.612C261.833 110.033 261.318 110.364 261.318 110.795V110.795C261.318 111.968 261.504 112.672 261.876 112.906C262.061 113.023 262.296 112.966 262.505 112.903C265.385 112.04 270.81 109.48 278.779 105.223C279.575 104.798 280.341 104.032 281.023 103.441C282.075 102.531 283.998 101.11 286.794 99.1772C291.173 95.6334 293.94 93.2443 295.095 92.0099C295.57 91.5015 296.022 90.8714 296.471 90.3394C298.011 88.5143 299.663 85.2561 301.426 80.565C301.77 79.651 302.438 78.6249 302.936 77.7848C303.893 76.1689 305.511 73.0098 307.789 68.3078L312.545 60.5546C312.665 60.3582 312.811 60.1781 312.988 60.0307C313.785 59.3671 314.902 58.6872 316.337 57.9909C316.857 57.7389 317.557 57.8486 318.115 57.9969V57.9969C318.455 58.0872 318.692 57.9565 318.997 57.7822C319.091 57.7286 319.182 57.6784 319.271 57.6316C320.031 57.2308 320.706 57.5121 321.469 57.9068V57.9068C322.081 58.2234 323.169 58.9388 323.803 59.207C323.952 59.27 324.121 59.3323 324.311 59.3937C325.346 59.7297 326.12 60.6462 326.468 61.6779C326.551 61.9241 326.649 62.1783 326.762 62.4404C326.911 62.7828 326.988 63.1553 326.822 63.4898C326.57 64.001 326.048 64.7917 325.256 65.862C324.937 66.2932 324.766 66.8231 324.578 67.3256C324.18 68.3919 323.125 70.0675 321.413 72.3526C321.003 72.8992 321.053 73.692 321.171 74.3647V74.3647C321.205 74.5571 321.158 74.6672 321.094 74.8516L318.195 83.2134C317.852 84.2007 317.163 85.3808 316.852 86.3782C316.703 86.8545 316.541 87.443 316.366 88.1437C316.318 88.3339 316.295 88.5301 316.295 88.7262V89.3625C316.295 89.6249 316.253 89.8865 316.169 90.1353C314.367 95.5028 312.515 99.6426 310.612 102.555C310.529 102.682 310.456 102.816 310.396 102.957L303.527 119.134C303.143 120.04 302.427 121.058 302.032 121.96C301.369 123.476 300.41 126.286 299.155 130.391C298.97 130.994 298.558 131.53 298.248 132.079C297.555 133.305 296.74 135.918 295.803 139.918C295.744 140.167 295.648 140.407 295.517 140.626L293.358 144.236C293.161 144.564 292.892 144.851 292.693 145.177C292.104 146.14 291.202 148.54 289.989 152.378C289.664 153.406 288.772 154.467 288.367 155.465C288.313 155.597 288.26 155.738 288.206 155.889C287.83 156.948 286.668 157.76 286.243 158.8C286.002 159.389 285.881 160.219 285.881 161.289L285.64 163.097C285.548 163.788 285.92 164.448 286.342 165.003V165.003C286.582 165.319 286.659 165.934 286.531 166.31C286.527 166.323 286.522 166.336 286.518 166.349Z" stroke="#1A1A1A" stroke-width="3.67962" stroke-linecap="round" stroke-linejoin="round"/>
<path d="M91.8411 166.349C91.6316 166.992 91.1124 167.555 90.4361 167.555H90.1477C89.4938 167.555 88.9619 167.358 88.668 166.774V166.774C88.44 166.321 87.7579 165.797 87.2608 165.898L86.9323 165.965C86.2781 166.099 85.6009 165.829 85.2752 165.246C84.2259 163.368 83.3843 160.877 82.7504 157.773C82.7434 157.739 82.7396 157.691 82.7421 157.656V157.656C82.7664 157.322 83.0823 156.953 83.0064 156.627L82.7745 155.63C82.7515 155.531 82.7397 155.433 82.7403 155.331C82.7857 147.275 86.4778 132.21 93.8167 110.136C93.8579 110.012 93.7665 109.882 93.636 109.882V109.882C93.5304 109.882 93.4317 109.968 93.3759 110.058C92.95 110.742 90.5505 112.729 86.1774 116.017C85.6769 116.394 85.2803 116.947 84.828 117.38C84.1216 118.056 82.7613 119.035 80.7472 120.316C80.0296 120.772 79.6613 121.618 79.2119 122.34C78.6552 123.234 77.4779 123.974 75.6799 124.558C74.5858 124.913 73.1985 125.636 72.2101 126.224C72.0466 126.322 71.8703 126.425 71.6812 126.534C71.3162 126.744 70.9008 126.852 70.4795 126.852H66.6409C66.3693 126.852 65.2174 127.145 63.1851 127.732C63.1109 127.753 63.0334 127.765 62.9562 127.765V127.765C62.7385 127.765 62.5313 127.677 62.3701 127.53C61.2893 126.549 59.6829 125.676 57.5509 124.909C57.0696 124.736 56.6354 124.436 56.3762 123.996C56.0506 123.442 55.77 122.819 55.5345 122.127C55.1558 121.015 54.1144 119.988 53.4653 119.009C52.8173 118.031 52.1776 116.438 51.5459 114.23C51.4848 114.016 51.4548 113.794 51.4548 113.572V111.21C51.4548 102.223 56.2723 88.4048 65.9073 69.7559C66.0879 69.4064 66.2108 69.0196 66.3456 68.6501C66.9936 66.875 69.5957 61.3124 74.1521 51.9623C74.2059 51.8519 74.2526 51.7347 74.2896 51.6176C75.068 49.1539 75.7868 47.3627 76.4461 46.2441C76.7304 45.7617 76.8968 45.2136 77.0502 44.6751C77.4196 43.3789 78.6472 42.2065 80.7332 41.1579C80.8789 41.0847 81.0404 41.0481 81.2035 41.0481H81.913C82.1176 41.0481 82.2529 41.2458 82.3976 41.3904V41.3904C82.5422 41.5351 82.7399 41.3387 82.7399 41.1341V41.0481C82.7399 40.7961 82.9449 40.5885 83.1954 40.6168C83.5039 40.6517 83.7959 40.7228 84.0713 40.8303C84.363 40.9441 84.8008 40.8993 85.0908 40.7814V40.7814C85.5576 40.5917 86.0327 40.9684 86.4745 41.2108C86.951 41.4723 87.7011 41.7619 88.7247 42.0798C89.4479 42.3043 90.0482 42.8259 90.3226 43.5317C90.9104 45.0436 91.2042 46.0137 91.2042 46.442C91.2042 48.5036 90.6433 50.0043 89.5214 50.944C89.1786 51.2311 88.8512 51.5468 88.6411 51.9416C86.1043 56.7087 84.4622 60.2673 83.715 62.6174C83.6437 62.8417 83.6036 63.0776 83.6619 63.3056C83.6637 63.3127 83.6655 63.3199 83.6675 63.3271C83.8382 63.9685 83.9519 64.6367 83.7406 65.2659C81.3547 72.3694 77.4995 82.4732 72.175 95.5771C72.0558 95.8707 71.9983 96.187 71.9776 96.5032C71.8551 98.372 71.0207 100.372 69.4742 102.504C69.3573 102.665 69.2569 102.838 69.1818 103.022C68.42 104.891 67.7743 107.088 67.2447 109.612C67.1564 110.033 66.6409 110.364 66.6409 110.795V110.795C66.6409 111.968 66.827 112.672 67.1992 112.906C67.3843 113.023 67.6185 112.966 67.828 112.903C70.7079 112.04 76.1325 109.48 84.1018 105.223C84.8978 104.798 85.6638 104.032 86.3462 103.441C87.3977 102.531 89.3213 101.11 92.1171 99.1772C96.496 95.6334 99.2628 93.2443 100.418 92.0099C100.893 91.5015 101.345 90.8714 101.794 90.3394C103.334 88.5143 104.986 85.2561 106.749 80.565C107.093 79.651 107.761 78.6249 108.259 77.7848C109.216 76.1689 110.834 73.0098 113.112 68.3078L117.868 60.5546C117.988 60.3582 118.134 60.1781 118.311 60.0307C119.108 59.3671 120.225 58.6872 121.66 57.9909C122.18 57.7389 122.88 57.8486 123.438 57.9969V57.9969C123.778 58.0872 124.015 57.9565 124.32 57.7822C124.414 57.7286 124.505 57.6784 124.594 57.6316C125.354 57.2308 126.029 57.5121 126.792 57.9068V57.9068C127.404 58.2234 128.492 58.9388 129.126 59.207C129.275 59.27 129.444 59.3323 129.634 59.3937C130.669 59.7297 131.443 60.6462 131.791 61.6779C131.874 61.9241 131.972 62.1783 132.085 62.4404C132.234 62.7828 132.311 63.1553 132.145 63.4898C131.893 64.001 131.371 64.7917 130.579 65.862C130.26 66.2932 130.089 66.8231 129.901 67.3256C129.503 68.3919 128.448 70.0675 126.736 72.3526C126.326 72.8992 126.376 73.692 126.494 74.3647V74.3647C126.528 74.5571 126.481 74.6672 126.417 74.8516L123.518 83.2134C123.175 84.2007 122.486 85.3808 122.175 86.3782C122.026 86.8545 121.864 87.443 121.689 88.1437C121.641 88.3339 121.618 88.5301 121.618 88.7262V89.3625C121.618 89.6249 121.576 89.8865 121.492 90.1353C119.69 95.5028 117.838 99.6426 115.935 102.555C115.852 102.682 115.779 102.816 115.719 102.957L108.85 119.134C108.466 120.04 107.75 121.058 107.355 121.96C106.692 123.476 105.733 126.286 104.478 130.391C104.293 130.994 103.881 131.53 103.571 132.079C102.878 133.305 102.063 135.918 101.126 139.918C101.067 140.167 100.971 140.407 100.84 140.626L98.6806 144.236C98.4845 144.564 98.2149 144.851 98.0156 145.177C97.4265 146.14 96.5253 148.54 95.3119 152.378C94.987 153.406 94.0948 154.467 93.6897 155.465C93.6363 155.597 93.5828 155.738 93.5292 155.889C93.153 156.948 91.9914 157.76 91.5658 158.8C91.3248 159.389 91.2042 160.219 91.2042 161.289L90.9632 163.097C90.8711 163.788 91.2434 164.448 91.6647 165.003V165.003C91.9051 165.319 91.9815 165.934 91.8538 166.31C91.8495 166.323 91.8453 166.336 91.8411 166.349Z" stroke="#1A1A1A" stroke-width="3.67962" stroke-linecap="round" stroke-linejoin="round"/>
<path d="M205.679 166.831C161.116 175.683 102.798 188.847 82.7618 168.84C62.726 148.833 81.0705 95.4837 109.278 58.5614C137.571 21.902 175.544 1.57759 214.59 0.304921C253.453 -1.05962 293.388 16.6276 309.842 44.5272C326.015 72.506 318.889 110.789 299.879 132.069C280.869 153.348 250.06 157.887 205.679 166.831Z" fill="#1A1A1A" fill-opacity="0.04"/>
<circle cx="365" cy="25" r="8" stroke="#1A1A1A" stroke-width="4" stroke-linecap="round" stroke-linejoin="round"/>
<path d="M248.667 171.629L248.063 173.536" stroke="#1A1A1A" stroke-width="4" stroke-linecap="round" stroke-linejoin="round"/>
<path d="M256.476 186.697L254.57 186.092" stroke="#1A1A1A" stroke-width="4" stroke-linecap="round" stroke-linejoin="round"/>
<path d="M235.507 180.043L233.6 179.438" stroke="#1A1A1A" stroke-width="4" stroke-linecap="round" stroke-linejoin="round"/>
<path d="M242.014 192.599L241.409 194.505" stroke="#1A1A1A" stroke-width="4" stroke-linecap="round" stroke-linejoin="round"/>
<path d="M50.3988 19.6331L34.1593 29.2393L51.9174 38.4399L50.3988 19.6331Z" stroke="#1A1A1A" stroke-width="4" stroke-linecap="round" stroke-linejoin="round"/>
</svg>
