<svg width="375" height="200" viewBox="0 0 375 200" fill="none" xmlns="http://www.w3.org/2000/svg">
<path d="M279.428 46.5482C288.123 70.5606 258.967 107.175 235.779 135.105C212.591 163.034 195.37 182.108 173.375 184.662C151.551 187.387 125.123 173.423 109.437 149.751C93.5804 126.249 88.2948 92.6998 101.423 66.1328C114.723 39.7361 146.266 20.1515 185.311 15.894C224.355 11.6364 270.732 22.706 279.428 46.5482Z" fill="#1A1A1A" fill-opacity="0.04"/>
<path d="M308.667 26.6294L308.062 28.5357" stroke="#1A1A1A" stroke-width="3" stroke-linecap="round" stroke-linejoin="round"/>
<path d="M316.476 41.6968L314.569 41.0919" stroke="#1A1A1A" stroke-width="3" stroke-linecap="round" stroke-linejoin="round"/>
<path d="M295.506 35.043L293.6 34.4381" stroke="#1A1A1A" stroke-width="3" stroke-linecap="round" stroke-linejoin="round"/>
<path d="M302.013 47.5991L301.409 49.5055" stroke="#1A1A1A" stroke-width="3" stroke-linecap="round" stroke-linejoin="round"/>
<circle cx="70.5" cy="44.5" r="14.5" stroke="#1A1A1A" stroke-width="4" stroke-linecap="round" stroke-linejoin="round"/>
<circle cx="192.896" cy="85" r="43" fill="#FFC700"/>
<circle cx="186.396" cy="91.5002" r="42.5" transform="rotate(-5.52681 186.396 91.5002)" stroke="#1A1A1A" stroke-width="4" stroke-linecap="round" stroke-linejoin="round"/>
<path d="M185.34 80.5952C185.686 79.929 186.106 79.2939 186.599 78.7016C190.319 74.2331 196.98 73.5885 201.488 77.261C206.005 80.9421 206.646 87.5644 202.918 92.0434C201.834 93.3458 197.218 98.1932 188.955 106.712C188.385 107.299 187.473 107.388 186.801 106.92C177.063 100.148 171.603 96.2757 170.284 95.2011C165.766 91.52 165.125 84.8977 168.853 80.4187C172.573 75.9502 179.235 75.3056 183.742 78.9781C184.339 79.4648 184.874 80.0076 185.34 80.5952Z" stroke="#1A1A1A" stroke-width="4" stroke-linecap="round" stroke-linejoin="round"/>
<circle cx="81.5" cy="158.5" r="17.5" fill="#FFC700"/>
<circle cx="92.4999" cy="152.5" r="22.5" transform="rotate(13.9289 92.4999 152.5)" stroke="#1A1A1A" stroke-width="4" stroke-linecap="round" stroke-linejoin="round"/>
<path d="M93.4756 148.567C93.7453 148.305 94.0443 148.07 94.3694 147.868C96.8224 146.341 99.9872 147.126 101.442 149.622C102.901 152.124 102.089 155.397 99.6306 156.928C98.9156 157.373 95.9879 158.934 90.7735 161.652C90.4138 161.84 89.9807 161.732 89.7503 161.398C86.4122 156.561 84.5531 153.813 84.1273 153.083C82.6687 150.58 83.4803 147.308 85.9391 145.777C88.3921 144.25 91.5569 145.035 93.0121 147.531C93.2049 147.862 93.3595 148.21 93.4756 148.567Z" stroke="#1A1A1A" stroke-width="4" stroke-linecap="round" stroke-linejoin="round"/>
<path d="M335.452 94.2272C335.973 93.8383 336.538 93.5026 337.141 93.2283C341.686 91.1588 346.936 93.211 348.873 97.8148C350.814 102.429 348.692 107.858 344.136 109.932C342.811 110.535 337.444 112.557 327.899 116.052C327.24 116.293 326.522 116.013 326.201 115.389C321.56 106.352 318.987 101.226 318.42 99.879C316.479 95.2644 318.601 89.836 323.157 87.7617C327.703 85.6922 332.952 87.7444 334.889 92.3481C335.146 92.9583 335.333 93.5881 335.452 94.2272Z" fill="#FFC700"/>
<path d="M326.572 99.1419C327.03 98.8001 327.526 98.505 328.056 98.2639C332.052 96.4446 336.667 98.2487 338.369 102.296C340.076 106.352 338.211 111.124 334.205 112.948C333.04 113.478 328.322 115.256 319.931 118.328C319.352 118.54 318.721 118.293 318.439 117.745C314.359 109.801 312.097 105.295 311.599 104.11C309.892 100.054 311.758 95.2817 315.763 93.4582C319.759 91.6389 324.374 93.443 326.077 97.4901C326.302 98.0265 326.467 98.5802 326.572 99.1419Z" stroke="#1A1A1A" stroke-width="4" stroke-linecap="round" stroke-linejoin="round"/>
</svg>
