<svg width="64" height="64" viewBox="0 0 64 64" fill="none" xmlns="http://www.w3.org/2000/svg">
<g clip-path="url(#clip0)">
<path d="M4.81738 44.0401C5.03255 44.0201 5.25067 44.0699 5.44125 44.1825C5.4283 44.3248 5.41196 44.467 5.39832 44.6079C5.57976 45.2195 5.72602 45.8404 5.83632 46.4674L6.08986 46.9148C5.95624 46.9115 5.93167 47.0333 5.94432 47.1353C5.95493 47.2365 5.96592 47.2695 5.97582 47.3624C7.39774 48.093 7.97694 50.4578 8.53353 51.8238C9.31105 52.339 9.95508 53.0439 10.4054 53.8728C12.4735 56.634 15.9588 58.6807 19.3217 58.7952C19.8888 58.8134 19.1594 58.7465 19.5976 58.7574C19.4877 58.5962 19.4864 58.4416 19.4199 58.2838C19.4883 58.2663 19.554 58.2502 19.6211 58.2264C21.1386 58.7886 22.2089 59.3076 23.5295 58.2422C23.7817 58.5351 24.3379 58.386 24.5718 58.3825C24.8058 58.379 24.6837 58.3649 24.8379 58.4279C25.0094 58.2542 25.214 58.2143 25.4491 58.151C27.2242 57.7409 29.1309 57.178 30.6228 56.0663C33.4252 54.9893 34.9421 53.6841 37.2066 51.9487C37.5527 51.6833 37.141 52.0101 37.4081 51.8057C40.5165 47.6315 40.4906 46.6501 41.7902 42.1543C41.7595 42.1116 41.7336 42.0788 41.6968 42.0338C41.4646 42.1307 41.0164 42.1473 40.8502 41.9767C40.7357 41.8578 40.8358 41.947 40.7533 41.8492C41.2239 41.6683 41.3836 41.1218 41.5316 40.6717C42.3788 40.2473 41.2381 36.9373 41.1301 36.4281C40.9525 36.2858 40.9314 36.432 40.8702 36.085C40.8077 35.7386 40.7022 34.8759 40.6381 34.464C40.5783 34.4442 40.5208 34.4668 40.4617 34.4623C39.8689 32.5662 39.1633 29.3471 37.0011 28.6857C36.2677 26.8996 32.4676 26.5893 31.2501 25.1424C29.876 24.1689 28.9232 25.8871 27.5214 24.9498C27.0776 26.5078 25.0738 22.612 24.3533 22.2461C23.3987 22.4697 22.4046 22.8014 21.4132 22.5179C17.1894 23.3071 16.5313 22.553 13.085 25.2952C12.9909 25.4838 12.9092 25.7292 12.7389 25.8536C12.5685 25.978 12.3704 25.9728 12.1725 25.9885C10.7015 26.9331 9.08305 27.501 8.18797 29.1031C6.81017 30.4263 5.68944 31.7558 5.27599 33.7C4.85055 34.2776 4.5464 34.833 4.84117 35.5621C4.35783 38.4417 3.95654 41.1595 4.81738 44.0401Z" fill="#FFC700"/>
<rect x="9" y="15.9998" width="35" height="22" rx="3" stroke="#1A1A1A" stroke-width="2.73" stroke-linecap="round" stroke-linejoin="round"/>
<rect x="9" y="20.9998" width="35" height="5" stroke="#1A1A1A" stroke-width="2.73" stroke-linecap="round" stroke-linejoin="round"/>
<rect x="16" y="29.9998" width="4" height="4" rx="2" fill="#1A1A1A"/>
<rect x="13" y="29.9998" width="4" height="4" rx="2" fill="#1A1A1A"/>
<path d="M16 42.9998H41C45.4183 42.9998 49 39.4181 49 34.9998V22.9998" stroke="#1A1A1A" stroke-opacity="0.5" stroke-width="2.73" stroke-linecap="round" stroke-linejoin="round"/>
<path d="M23 47.9998H41C48.1797 47.9998 54 42.1795 54 34.9998V29.9998" stroke="#1A1A1A" stroke-width="2.73" stroke-linecap="round" stroke-linejoin="round"/>
</g>
<defs>
<clipPath id="clip0">
<rect width="56" height="56" fill="white" transform="translate(4 3.99982)"/>
</clipPath>
</defs>
</svg>
