<svg width="64" height="64" viewBox="0 0 64 64" fill="none" xmlns="http://www.w3.org/2000/svg">
<g clip-path="url(#clip0)">
<path d="M22.6821 34.7141C22.8889 34.6949 23.0986 34.7427 23.2818 34.851C23.2693 34.9878 23.2536 35.1244 23.2405 35.2599C23.4149 35.8478 23.5555 36.4447 23.6616 37.0474L23.9053 37.4775C23.7768 37.4743 23.7532 37.5914 23.7654 37.6894C23.7756 37.7867 23.7862 37.8185 23.7957 37.9077C25.1625 38.61 25.7193 40.8833 26.2544 42.1965C27.0018 42.6916 27.6209 43.3693 28.0537 44.1661C30.0418 46.8204 33.3921 48.7879 36.6249 48.8979C37.17 48.9155 36.4689 48.8511 36.8901 48.8616C36.7844 48.7066 36.7831 48.5581 36.7193 48.4063C36.785 48.3895 36.8482 48.374 36.9126 48.3512C38.3714 48.8916 39.4003 49.3905 40.6698 48.3664C40.9122 48.6479 41.4468 48.5045 41.6717 48.5012C41.8967 48.4978 41.7792 48.4843 41.9275 48.5449C42.0924 48.3778 42.2891 48.3395 42.515 48.2787C44.2214 47.8844 46.0543 47.3434 47.4885 46.2747C50.1824 45.2394 51.6405 43.9847 53.8173 42.3165C54.15 42.0614 53.7543 42.3755 54.011 42.1791C56.9991 38.1665 56.9742 37.223 58.2235 32.9012C58.194 32.8602 58.1691 32.8287 58.1337 32.7855C57.9105 32.8786 57.4797 32.8945 57.3199 32.7306C57.2099 32.6162 57.3061 32.702 57.2268 32.608C57.6791 32.4341 57.8327 31.9088 57.9749 31.4761C58.7893 31.0681 57.6928 27.8863 57.5889 27.3968C57.4182 27.2599 57.3979 27.4005 57.3391 27.0669C57.279 26.7339 57.1777 25.9046 57.116 25.5087C57.0585 25.4896 57.0032 25.5114 56.9465 25.5071C56.3766 23.6844 55.6983 20.5899 53.6198 19.9541C52.9148 18.2371 49.2618 17.9389 48.0915 16.5479C46.7705 15.6122 45.8547 17.2639 44.5072 16.3628C44.0805 17.8605 42.1543 14.1156 41.4617 13.7638C40.544 13.9788 39.5884 14.2976 38.6354 14.0251C34.5752 14.7837 33.9425 14.0588 30.6297 16.6949C30.5392 16.8762 30.4606 17.112 30.2969 17.2316C30.1331 17.3512 29.9427 17.3462 29.7524 17.3613C28.3384 18.2694 26.7826 18.8153 25.9222 20.3553C24.5977 21.6273 23.5204 22.9054 23.1229 24.7743C22.714 25.3295 22.4216 25.8634 22.7049 26.5643C22.2403 29.3324 21.8546 31.945 22.6821 34.7141Z" fill="#FFC700"/>
<rect x="18" y="6" width="28" height="52" rx="3" stroke="#1A1A1A" stroke-width="2.73" stroke-linecap="round" stroke-linejoin="round"/>
<rect x="34" y="33" width="8" height="8" rx="3" fill="#1A1A1A" fill-opacity="0.5"/>
<rect x="34" y="45" width="8" height="8" rx="3" fill="#1A1A1A"/>
<rect x="22" y="33" width="8" height="8" rx="3" fill="#1A1A1A"/>
<rect x="22" y="45" width="8" height="8" rx="3" fill="#1A1A1A" fill-opacity="0.5"/>
<path d="M25 6L25.5442 7.63246C25.8164 8.44914 26.5807 9 27.4415 9H36.5585C37.4193 9 38.1836 8.44914 38.4558 7.63246L39 6" stroke="#1A1A1A" stroke-width="2.73" stroke-linecap="round" stroke-linejoin="round"/>
</g>
<defs>
<clipPath id="clip0">
<rect width="56" height="56" fill="white" transform="translate(4 4)"/>
</clipPath>
</defs>
</svg>
