<svg width="65" height="64" viewBox="0 0 65 64" fill="none" xmlns="http://www.w3.org/2000/svg">
<g clip-path="url(#clip0)">
<path d="M24.7294 25.8563C24.9321 25.8375 25.1376 25.8844 25.3172 25.9905C25.305 26.1246 25.2896 26.2586 25.2768 26.3913C25.4477 26.9676 25.5855 27.5527 25.6895 28.1434L25.9284 28.565C25.8025 28.5619 25.7793 28.6767 25.7912 28.7728C25.8012 28.8682 25.8116 28.8993 25.8209 28.9868C27.1607 29.6752 27.7065 31.9034 28.2309 33.1906C28.9636 33.676 29.5704 34.3402 29.9947 35.1212C31.9434 37.723 35.2274 39.6515 38.3962 39.7594C38.9305 39.7766 38.2432 39.7135 38.6561 39.7238C38.5525 39.5719 38.5513 39.4262 38.4886 39.2775C38.5531 39.261 38.615 39.2458 38.6782 39.2234C40.1081 39.7532 41.1167 40.2422 42.361 39.2384C42.5986 39.5143 43.1226 39.3738 43.3431 39.3705C43.5635 39.3672 43.4485 39.3539 43.5938 39.4133C43.7554 39.2496 43.9482 39.212 44.1697 39.1524C45.8423 38.7659 47.6389 38.2356 49.0447 37.1881C51.6852 36.1732 53.1145 34.9434 55.2482 33.3082C55.5743 33.0582 55.1865 33.3661 55.4381 33.1735C58.367 29.2404 58.3426 28.3156 59.5672 24.0794C59.5383 24.0392 59.5139 24.0083 59.4792 23.9659C59.2604 24.0572 58.8381 24.0728 58.6814 23.9121C58.5736 23.8 58.6679 23.8841 58.5902 23.792C59.0336 23.6215 59.1841 23.1066 59.3235 22.6825C60.1218 22.2825 59.0469 19.1637 58.9452 18.6839C58.7778 18.5498 58.758 18.6876 58.7003 18.3606C58.6414 18.0342 58.542 17.2213 58.4816 16.8333C58.4252 16.8145 58.371 16.8359 58.3154 16.8316C57.7569 15.045 57.092 12.0118 55.0546 11.3886C54.3636 9.70561 50.7829 9.41325 49.6357 8.04986C48.3409 7.13262 47.4432 8.75165 46.1224 7.8684C45.7041 9.33643 43.8161 5.66565 43.1372 5.32087C42.2377 5.53156 41.301 5.84411 40.3668 5.577C36.387 6.32055 35.7669 5.61002 32.5196 8.19389C32.4309 8.3716 32.3539 8.60278 32.1934 8.72C32.0329 8.83721 31.8463 8.83233 31.6597 8.84712C30.2737 9.73721 28.7487 10.2723 27.9053 11.7819C26.6071 13.0287 25.5511 14.2814 25.1615 16.1133C24.7606 16.6576 24.474 17.1809 24.7518 17.8679C24.2964 20.5813 23.9183 23.1421 24.7294 25.8563Z" fill="#FFC700"/>
<path d="M29.6667 35H14.6667V29H29.6667C31.3235 29 32.6667 30.3431 32.6667 32V32C32.6667 33.6569 31.3235 35 29.6667 35V35ZM29.6667 35L33.6667 44M29.6667 35H15.6667V44H19.6667M33.6667 44H43.6667L40.6667 23M33.6667 44H30.6667M40.6667 23H37.6667M40.6667 23H46.6667L47.2667 26M49.6667 38L47.2667 26M47.2667 26H50.6667M19.6667 44V44.5C19.6667 47.5376 22.1291 50 25.1667 50V50C28.2043 50 30.6667 47.5376 30.6667 44.5V44M19.6667 44H30.6667M49.6667 50V50C52.9804 50 55.6667 47.3137 55.6667 44V44C55.6667 40.6863 52.9804 38 49.6667 38V38C46.353 38 43.6667 40.6863 43.6667 44V44C43.6667 47.3137 46.353 50 49.6667 50Z" stroke="#1A1A1A" stroke-width="2.73" stroke-linecap="round" stroke-linejoin="round"/>
<path d="M9.66669 29V14H25.6667V29H9.66669Z" stroke="#1A1A1A" stroke-opacity="0.5" stroke-width="2.73" stroke-linecap="round" stroke-linejoin="round"/>
</g>
<defs>
<clipPath id="clip0">
<rect width="56" height="56" fill="white" transform="translate(4.66669 4)"/>
</clipPath>
</defs>
</svg>
