<svg width="93" height="64" viewBox="0 0 93 64" fill="none" xmlns="http://www.w3.org/2000/svg">
<path d="M1.27184 36.2903C1.487 36.2703 1.70512 36.3201 1.8957 36.4327C1.88275 36.575 1.86641 36.7172 1.85278 36.8581C2.03421 37.4697 2.18047 38.0906 2.29077 38.7176L2.54431 39.165C2.41069 39.1617 2.38613 39.2834 2.39877 39.3854C2.40938 39.4867 2.42037 39.5197 2.43027 39.6126C3.8522 40.3431 4.4314 42.708 4.98798 44.074C5.76551 44.5891 6.40954 45.2941 6.85981 46.123C8.92799 48.8842 12.4132 50.9309 15.7762 51.0454C16.3432 51.0636 15.6139 50.9967 16.052 51.0076C15.9421 50.8464 15.9408 50.6918 15.8743 50.5339C15.9428 50.5165 16.0085 50.5003 16.0755 50.4766C17.593 51.0388 18.6634 51.5578 19.984 50.4924C20.2362 50.7853 20.7923 50.6361 21.0263 50.6326C21.2603 50.6292 21.1381 50.6151 21.2923 50.6781C21.4638 50.5044 21.6685 50.4645 21.9036 50.4012C23.6786 49.991 25.5853 49.4282 27.0773 48.3165C29.8797 47.2395 31.3966 45.9343 33.661 44.1989C34.0071 43.9335 33.5955 44.2603 33.8625 44.0559C36.971 39.8817 36.945 38.9003 38.2447 34.4044C38.214 34.3618 38.1881 34.329 38.1513 34.284C37.9191 34.3808 37.4709 34.3975 37.3046 34.2269C37.1902 34.1079 37.2903 34.1972 37.2078 34.0994C37.6784 33.9185 37.8381 33.372 37.986 32.9219C38.8333 32.4975 37.6925 29.1875 37.5845 28.6783C37.4069 28.5359 37.3858 28.6822 37.3247 28.3351C37.2621 27.9888 37.1567 27.1261 37.0925 26.7142C37.0328 26.6943 36.9752 26.717 36.9162 26.7125C36.3234 24.8163 35.6178 21.5973 33.4556 20.9359C32.7222 19.1498 28.9221 18.8395 27.7046 17.3925C26.3304 16.4191 25.3777 18.1373 23.9759 17.2C23.532 18.758 21.5282 14.8622 20.8078 14.4963C19.8532 14.7199 18.859 15.0516 17.8676 14.7681C13.6439 15.5572 12.9857 14.8032 9.53949 17.5454C9.44535 17.734 9.36367 17.9793 9.19331 18.1037C9.02294 18.2281 8.82489 18.223 8.62692 18.2387C7.15593 19.1833 5.53751 19.7512 4.64242 21.3533C3.26463 22.6765 2.14389 24.006 1.73044 25.9502C1.305 26.5277 1.00085 27.0832 1.29562 27.8123C0.812282 30.6919 0.410993 33.4097 1.27184 36.2903Z" fill="#FFC700"/>
<path d="M25.3163 19.3834C24.3553 20.5319 22.8176 21.4377 21.2799 21.3083C21.0877 19.7555 21.8405 18.1056 22.7215 17.0866C23.6825 15.9058 25.3644 15.0647 26.7258 15C26.886 16.6175 26.2613 18.2027 25.3163 19.3834ZM26.7098 21.6156C24.4834 21.4862 22.5773 22.8934 21.5202 22.8934C20.447 22.8934 18.8292 21.6803 17.0673 21.7127C14.7768 21.745 12.6465 23.0552 11.4772 25.1418C9.0746 29.3149 10.8525 35.4938 13.1751 38.8906C14.3123 40.5728 15.6738 42.4167 17.4678 42.352C19.1656 42.2873 19.8383 41.236 21.8886 41.236C23.9548 41.236 24.5475 42.352 26.3414 42.3197C28.1994 42.2873 29.3687 40.6375 30.506 38.9553C31.8034 37.0466 32.332 35.1865 32.364 35.0894C32.332 35.0571 28.7761 33.6822 28.744 29.5414C28.712 26.0799 31.5471 24.4301 31.6752 24.333C30.0735 21.9391 27.5748 21.6803 26.7098 21.6156ZM39.5718 16.9248V42.1418H43.4481V33.5205H48.8139C53.7153 33.5205 57.159 30.1237 57.159 25.2065C57.159 20.2892 53.7793 16.9248 48.9421 16.9248H39.5718ZM43.4481 20.2245H47.9169C51.2806 20.2245 53.2027 22.0362 53.2027 25.2226C53.2027 28.4091 51.2806 30.2369 47.9009 30.2369H43.4481V20.2245ZM64.2387 42.3359C66.6734 42.3359 68.9318 41.0904 69.957 39.117H70.037V42.1418H73.625V29.5899C73.625 25.9505 70.7418 23.6051 66.305 23.6051C62.1885 23.6051 59.1452 25.9829 59.0331 29.2502H62.5249C62.8132 27.6974 64.2387 26.6784 66.1929 26.6784C68.5634 26.6784 69.8929 27.7945 69.8929 29.8487V31.2398L65.0556 31.5309C60.5547 31.8059 58.1201 33.666 58.1201 36.901C58.1201 40.1684 60.6348 42.3359 64.2387 42.3359ZM65.2799 39.3435C63.2136 39.3435 61.9002 38.3406 61.9002 36.804C61.9002 35.2188 63.1656 34.2969 65.5842 34.1513L69.8929 33.8763V35.2997C69.8929 37.6613 67.9067 39.3435 65.2799 39.3435ZM78.4142 49C82.1943 49 83.9722 47.5442 85.5259 43.1284L92.3334 23.8478H88.3931L83.8281 38.745H83.748L79.183 23.8478H75.1306L81.6978 42.2065L81.3454 43.3226C80.7527 45.215 79.7917 45.9429 78.0778 45.9429C77.7735 45.9429 77.1808 45.9106 76.9406 45.8782V48.903C77.1648 48.9677 78.1259 49 78.4142 49Z" fill="black"/>
</svg>
