<svg width="64" height="64" viewBox="0 0 64 64" fill="none" xmlns="http://www.w3.org/2000/svg">
<mask id="mask0" style="mask-type:alpha" maskUnits="userSpaceOnUse" x="4" y="6" width="42" height="41">
<path d="M5.5069 30.3324C5.73757 30.311 5.97139 30.3644 6.1757 30.4851C6.16182 30.6376 6.1443 30.79 6.12969 30.9411C6.32419 31.5967 6.48098 32.2624 6.59923 32.9345L6.87103 33.4141C6.72778 33.4106 6.70145 33.5412 6.71501 33.6505C6.72638 33.759 6.73816 33.7944 6.74877 33.894C8.27312 34.6772 8.89404 37.2123 9.49071 38.6768C10.3242 39.229 11.0147 39.9848 11.4974 40.8733C13.7145 43.8334 17.4508 46.0276 21.056 46.1503C21.6639 46.1698 20.882 46.0981 21.3517 46.1098C21.2339 45.937 21.2325 45.7713 21.1612 45.602C21.2346 45.5833 21.305 45.566 21.3769 45.5405C23.0037 46.1432 24.1512 46.6996 25.5669 45.5575C25.8372 45.8715 26.4334 45.7116 26.6843 45.7078C26.9351 45.7041 26.8041 45.689 26.9695 45.7566C27.1533 45.5703 27.3727 45.5276 27.6247 45.4597C29.5276 45.02 31.5717 44.4167 33.1711 43.2248C36.1753 42.0702 37.8015 40.671 40.229 38.8106C40.6001 38.5262 40.1588 38.8764 40.445 38.6574C43.7774 34.1825 43.7496 33.1304 45.1429 28.3107C45.11 28.265 45.0822 28.2298 45.0427 28.1816C44.7938 28.2854 44.3133 28.3032 44.1351 28.1204C44.0124 27.9929 44.1197 28.0886 44.0313 27.9837C44.5357 27.7898 44.707 27.2039 44.8656 26.7214C45.7739 26.2664 44.5509 22.718 44.4352 22.1722C44.2448 22.0195 44.2222 22.1763 44.1566 21.8043C44.0896 21.4329 43.9765 20.5081 43.9077 20.0666C43.8436 20.0453 43.7819 20.0696 43.7187 20.0647C43.0832 18.032 42.3267 14.5811 40.0088 13.8721C39.2226 11.9573 35.1488 11.6246 33.8436 10.0735C32.3704 9.0299 31.3491 10.8719 29.8463 9.86701C29.3705 11.5372 27.2224 7.36088 26.45 6.96861C25.4266 7.20832 24.3609 7.56392 23.2981 7.26002C18.7701 8.10598 18.0646 7.29759 14.3701 10.2373C14.2691 10.4395 14.1816 10.7025 13.9989 10.8359C13.8163 10.9693 13.604 10.9637 13.3918 10.9805C11.8148 11.9932 10.0798 12.602 9.12027 14.3195C7.64323 15.738 6.44177 17.1633 5.99854 19.2475C5.54245 19.8667 5.2164 20.4621 5.53239 21.2437C5.01424 24.3308 4.58405 27.2443 5.5069 30.3324Z" fill="#E72E2E"/>
</mask>
<g mask="url(#mask0)">
<path d="M47.8358 17.9225L45.5836 13.274C34.2546 -10.1083 -8.97915 13.7738 2.32421 37.1034C13.6276 60.4329 59.1647 41.3048 47.8358 17.9225Z" fill="#FFC700"/>
</g>
<rect x="12" y="13.9998" width="40" height="26" stroke="#1A1A1A" stroke-width="2.73" stroke-linecap="round" stroke-linejoin="round"/>
<path d="M12 39.9998L7 46.9998H57L52 39.9998" stroke="#1A1A1A" stroke-width="2.73" stroke-linecap="round" stroke-linejoin="round"/>
<path d="M25 43.9998L23 46.9998H41L39 43.9998H25Z" stroke="#1A1A1A" stroke-opacity="0.5" stroke-width="2" stroke-linecap="round" stroke-linejoin="round"/>
</svg>
