<svg width="64" height="64" viewBox="0 0 64 64" fill="none" xmlns="http://www.w3.org/2000/svg">
<g clip-path="url(#clip0)">
<path d="M5.07876 46.7507C5.2448 46.7352 5.41311 46.7737 5.56018 46.8606C5.55018 46.9704 5.53757 47.0801 5.52705 47.1888C5.66706 47.6608 5.77992 48.1399 5.86504 48.6237L6.06068 48.969C5.95757 48.9664 5.93862 49.0604 5.94838 49.1391C5.95656 49.2172 5.96505 49.2427 5.97268 49.3144C7.06994 49.8781 7.51689 51.703 7.94639 52.7571C8.54638 53.1546 9.04336 53.6986 9.39082 54.3382C10.9868 56.469 13.6762 58.0484 16.2713 58.1367C16.7089 58.1508 16.1461 58.0992 16.4842 58.1076C16.3994 57.9832 16.3983 57.8639 16.3471 57.7421C16.3999 57.7286 16.4506 57.7161 16.5023 57.6978C17.6733 58.1316 18.4993 58.5321 19.5184 57.71C19.713 57.936 20.1421 57.8209 20.3227 57.8182C20.5032 57.8155 20.409 57.8047 20.528 57.8533C20.6603 57.7192 20.8182 57.6885 20.9996 57.6396C22.3694 57.3231 23.8407 56.8888 24.992 56.0309C27.1545 55.1998 28.3251 54.1926 30.0725 52.8535C30.3396 52.6487 30.0219 52.9008 30.228 52.7432C32.6267 49.5221 32.6067 48.7647 33.6096 45.2954C33.5859 45.2625 33.5659 45.2372 33.5375 45.2025C33.3583 45.2772 33.0124 45.29 32.8842 45.1584C32.7959 45.0666 32.8731 45.1355 32.8094 45.06C33.1725 44.9204 33.2958 44.4987 33.41 44.1514C34.0638 43.8239 33.1835 41.2697 33.1002 40.8767C32.9631 40.7669 32.9468 40.8797 32.8996 40.6119C32.8514 40.3446 32.77 39.6789 32.7205 39.3611C32.6744 39.3458 32.6299 39.3633 32.5844 39.3598C32.127 37.8966 31.5825 35.4125 29.9139 34.9022C29.348 33.5238 26.4156 33.2844 25.4761 32.1679C24.4157 31.4167 23.6805 32.7426 22.5988 32.0192C22.2563 33.2215 20.71 30.2153 20.154 29.9329C19.4174 30.1055 18.6502 30.3614 17.8852 30.1427C14.6259 30.7516 14.118 30.1697 11.4586 32.2858C11.386 32.4313 11.323 32.6207 11.1915 32.7167C11.06 32.8127 10.9072 32.8087 10.7544 32.8208C9.61933 33.5497 8.37044 33.988 7.67974 35.2242C6.61653 36.2453 5.75169 37.2713 5.43265 38.7715C5.10435 39.2172 4.86964 39.6458 5.09711 40.2085C4.72413 42.4306 4.41447 44.5278 5.07876 46.7507Z" fill="#FFC700"/>
<path d="M12 15V16C12 35.8823 28.1178 52 48 52H49V45C49 43.8954 48.1046 43 47 43H46.5799C43.9028 43 41.2685 42.3283 38.9183 41.0463L38.8196 40.9925C37.8254 40.4502 36.5796 40.8409 36.0731 41.8539L33 48" stroke="#1A1A1A" stroke-width="2.73" stroke-linecap="round" stroke-linejoin="round"/>
<path d="M34 30L52 12M52 12H43M52 12V21" stroke="#1A1A1A" stroke-opacity="0.5" stroke-width="2.73" stroke-linecap="round" stroke-linejoin="round"/>
<path d="M12 15L19 15C20.1046 15 21 15.8954 21 17L21 17.4201C21 20.0972 21.6717 22.7315 22.9537 25.0817L23.0075 25.1804C23.5498 26.1746 23.1591 27.4204 22.1461 27.9269L16 31" stroke="#1A1A1A" stroke-width="2.73" stroke-linecap="round" stroke-linejoin="round"/>
</g>
<defs>
<clipPath id="clip0">
<rect width="56" height="56" fill="white" transform="translate(4 4)"/>
</clipPath>
</defs>
</svg>
