<svg width="65" height="64" viewBox="0 0 65 64" fill="none" xmlns="http://www.w3.org/2000/svg">
<g clip-path="url(#clip0)">
<path d="M6.48401 27.0401C6.69918 27.0201 6.91729 27.0699 7.10788 27.1825C7.09493 27.3248 7.07859 27.467 7.06495 27.6079C7.24639 28.2195 7.39264 28.8404 7.50295 29.4674L7.75648 29.9148C7.62286 29.9115 7.5983 30.0333 7.61095 30.1353C7.62155 30.2365 7.63255 30.2695 7.64244 30.3624C9.06437 31.093 9.64357 33.4578 10.2002 34.8238C10.9777 35.339 11.6217 36.0439 12.072 36.8728C14.1402 39.634 17.6254 41.6807 20.9883 41.7952C21.5554 41.8134 20.826 41.7465 21.2642 41.7574C21.1543 41.5962 21.153 41.4416 21.0865 41.2838C21.1549 41.2663 21.2206 41.2502 21.2877 41.2264C22.8052 41.7886 23.8756 42.3076 25.1962 41.2422C25.4484 41.5351 26.0045 41.386 26.2385 41.3825C26.4724 41.379 26.3503 41.3649 26.5045 41.4279C26.676 41.2542 26.8807 41.2143 27.1157 41.151C28.8908 40.7409 30.7975 40.178 32.2895 39.0663C35.0918 37.9893 36.6087 36.6841 38.8732 34.9487C39.2193 34.6833 38.8077 35.0101 39.0747 34.8057C42.1831 30.6315 42.1572 29.6501 43.4569 25.1543C43.4262 25.1116 43.4003 25.0788 43.3634 25.0338C43.1312 25.1307 42.683 25.1473 42.5168 24.9767C42.4024 24.8578 42.5024 24.947 42.42 24.8492C42.8905 24.6683 43.0503 24.1218 43.1982 23.6717C44.0455 23.2473 42.9047 19.9373 42.7967 19.4281C42.6191 19.2858 42.598 19.432 42.5368 19.085C42.4743 18.7386 42.3689 17.8759 42.3047 17.464C42.2449 17.4442 42.1874 17.4668 42.1284 17.4623C41.5356 15.5662 40.8299 12.3471 38.6677 11.6857C37.9344 9.89957 34.1342 9.5893 32.9168 8.14235C31.5426 7.1689 30.5899 8.88715 29.1881 7.94977C28.7442 9.50777 26.7404 5.61202 26.02 5.24611C25.0654 5.46971 24.0712 5.80142 23.0798 5.51794C18.8561 6.30706 18.1979 5.55299 14.7517 8.29521C14.6575 8.48381 14.5758 8.72916 14.4055 8.85356C14.2351 8.97796 14.0371 8.97277 13.8391 8.98847C12.3681 9.93311 10.7497 10.501 9.8546 12.1031C8.4768 13.4263 7.35606 14.7558 6.94262 16.7C6.51717 17.2776 6.21303 17.833 6.50779 18.5621C6.02446 21.4417 5.62317 24.1595 6.48401 27.0401Z" fill="#FFC700"/>
<rect x="20.4889" y="57.1336" width="35" height="22" transform="rotate(-109.073 20.4889 57.1336)" stroke="#1A1A1A" stroke-width="2.73" stroke-linecap="round" stroke-linejoin="round"/>
<circle cx="25.0033" cy="36.5273" r="4" transform="rotate(-109.073 25.0033 36.5273)" stroke="#1A1A1A" stroke-width="2.73" stroke-linecap="round" stroke-linejoin="round"/>
<path d="M18.2015 50.5179C21.8553 49.2546 25.8413 51.1925 27.1046 54.8462" stroke="#1A1A1A" stroke-opacity="0.5" stroke-width="2.73" stroke-linecap="round" stroke-linejoin="round"/>
<path d="M38.9938 43.329C35.34 44.5922 33.4022 48.5783 34.6655 52.2321" stroke="#1A1A1A" stroke-opacity="0.5" stroke-width="2.73" stroke-linecap="round" stroke-linejoin="round"/>
<path d="M32.1317 23.4818C28.478 24.7451 24.4919 22.8072 23.2286 19.1534" stroke="#1A1A1A" stroke-opacity="0.5" stroke-width="2.73" stroke-linecap="round" stroke-linejoin="round"/>
<path d="M11.3394 30.6707C14.9932 29.4074 16.9311 25.4213 15.6678 21.7676" stroke="#1A1A1A" stroke-opacity="0.5" stroke-width="2.73" stroke-linecap="round" stroke-linejoin="round"/>
<path d="M39.1666 44.1317L51.8687 45.7487L56.2885 11.0289L34.4646 8.25071L32.4598 23.9998" stroke="#1A1A1A" stroke-width="2.73" stroke-linecap="round" stroke-linejoin="round"/>
<circle cx="43.2298" cy="26.5037" r="4" transform="rotate(-82.7452 43.2298 26.5037)" stroke="#1A1A1A" stroke-width="2.73" stroke-linecap="round" stroke-linejoin="round"/>
<path d="M52.7526 38.8048C48.9176 38.3166 45.4129 41.0297 44.9247 44.8647" stroke="#1A1A1A" stroke-opacity="0.5" stroke-width="2.73" stroke-linecap="round" stroke-linejoin="round"/>
<path d="M55.4045 17.9729C51.5695 17.4847 48.8563 13.98 49.3446 10.1449" stroke="#1A1A1A" stroke-opacity="0.5" stroke-width="2.73" stroke-linecap="round" stroke-linejoin="round"/>
<path d="M33.5807 15.1947C37.4157 15.6829 40.9204 12.9697 41.4086 9.13467" stroke="#1A1A1A" stroke-opacity="0.5" stroke-width="2.73" stroke-linecap="round" stroke-linejoin="round"/>
</g>
<defs>
<clipPath id="clip0">
<rect width="56" height="56" fill="white" transform="translate(4.66663 3.99982)"/>
</clipPath>
</defs>
</svg>
