<svg width="64" height="64" viewBox="0 0 64 64" fill="none" xmlns="http://www.w3.org/2000/svg">
<g clip-path="url(#clip0)">
<path d="M5.90733 44.2431C6.13326 44.2221 6.36228 44.2744 6.5624 44.3926C6.5488 44.542 6.53165 44.6913 6.51733 44.8392C6.70784 45.4815 6.86141 46.1334 6.97723 46.7918L7.24345 47.2615C7.10315 47.2581 7.07735 47.386 7.09063 47.4931C7.10178 47.5994 7.11332 47.634 7.12371 47.7316C8.61676 48.4987 9.22494 50.9818 9.80937 52.4162C10.6258 52.9571 11.302 53.6973 11.7748 54.5676C13.9465 57.467 17.606 59.6161 21.1372 59.7363C21.7326 59.7554 20.9668 59.6852 21.4269 59.6966C21.3115 59.5273 21.3101 59.365 21.2403 59.1993C21.3121 59.1809 21.3811 59.164 21.4515 59.139C23.045 59.7293 24.1689 60.2743 25.5555 59.1557C25.8203 59.4632 26.4043 59.3066 26.65 59.3029C26.8956 59.2992 26.7674 59.2845 26.9293 59.3507C27.1094 59.1682 27.3243 59.1263 27.5711 59.0598C29.435 58.6292 31.4371 58.0382 33.0037 56.8709C35.9462 55.74 37.539 54.3695 39.9167 52.5473C40.2801 52.2687 39.8479 52.6117 40.1283 52.3972C43.3922 48.0142 43.365 46.9836 44.7297 42.2629C44.6975 42.2181 44.6703 42.1836 44.6316 42.1365C44.3878 42.2381 43.9172 42.2556 43.7426 42.0764C43.6225 41.9516 43.7275 42.0453 43.6409 41.9426C44.135 41.7527 44.3028 41.1788 44.4581 40.7062C45.3477 40.2605 44.1499 36.785 44.0365 36.2503C43.85 36.1008 43.8279 36.2544 43.7637 35.89C43.698 35.5263 43.5873 34.6204 43.5199 34.188C43.4571 34.1671 43.3967 34.1909 43.3347 34.1861C42.7123 32.1952 41.9714 28.8151 39.701 28.1206C38.9309 26.2451 34.9407 25.9193 33.6623 24.4C32.2195 23.3778 31.2191 25.182 29.7471 24.1978C29.281 25.8337 27.177 21.7431 26.4205 21.3589C25.4182 21.5937 24.3743 21.9419 23.3333 21.6443C18.8983 22.4729 18.2072 21.6811 14.5886 24.5605C14.4897 24.7585 14.4039 25.0161 14.2251 25.1468C14.0462 25.2774 13.8382 25.2719 13.6303 25.2884C12.0858 26.2803 10.3864 26.8766 9.44653 28.5588C7.9998 29.9483 6.823 31.3443 6.38887 33.3857C5.94215 33.9922 5.62278 34.5754 5.9323 35.341C5.42478 38.3646 5.00342 41.2184 5.90733 44.2431Z" fill="#FFC700"/>
<circle cx="32.0001" cy="34" r="17" stroke="#1A1A1A" stroke-width="2.73" stroke-linecap="round" stroke-linejoin="round"/>
<path d="M32.0001 17V12M32.0001 12H28.0001M32.0001 12H36.0001" stroke="#1A1A1A" stroke-width="2.73" stroke-linecap="round" stroke-linejoin="round"/>
<path d="M27.0001 39L32.0001 35V27" stroke="#1A1A1A" stroke-width="2.73" stroke-linecap="round" stroke-linejoin="round"/>
<path d="M18.0392 17.4699L23.1612 13.4681L22.5456 12.6801C21.1855 10.9392 18.6717 10.6306 16.9309 11.9907L12.9908 15.069C11.25 16.4291 10.9413 18.9428 12.3014 20.6837L12.9171 21.4717L18.0392 17.4699ZM18.0392 17.4699L21 20.9999" stroke="#1A1A1A" stroke-opacity="0.5" stroke-width="2.73" stroke-linecap="round" stroke-linejoin="round"/>
<path d="M45.9608 17.47L40.8387 13.4682L41.4544 12.6802C42.8145 10.9394 45.3283 10.6307 47.0691 11.9908L51.0092 15.0691C52.75 16.4292 53.0586 18.943 51.6985 20.6838L51.0829 21.4718L45.9608 17.47ZM45.9608 17.47L43.0001 21" stroke="#1A1A1A" stroke-opacity="0.5" stroke-width="2.73" stroke-linecap="round" stroke-linejoin="round"/>
<path d="M17.0001 52L21.0001 48" stroke="#1A1A1A" stroke-opacity="0.5" stroke-width="2.73" stroke-linecap="round" stroke-linejoin="round"/>
<path d="M47.0001 52L42.9999 48" stroke="#1A1A1A" stroke-opacity="0.5" stroke-width="2.73" stroke-linecap="round" stroke-linejoin="round"/>
<circle cx="32.0001" cy="22" r="1" fill="#1A1A1A"/>
<circle cx="32.0001" cy="46" r="1" fill="#1A1A1A"/>
<circle cx="20.0001" cy="34" r="1" fill="#1A1A1A"/>
<circle cx="44.0001" cy="34" r="1" fill="#1A1A1A"/>
</g>
<defs>
<clipPath id="clip0">
<rect width="56" height="56" fill="white" transform="translate(4.00006 4)"/>
</clipPath>
</defs>
</svg>
