<svg width="375" height="200" viewBox="0 0 375 200" fill="none" xmlns="http://www.w3.org/2000/svg">
<path d="M124.15 171.647L104.068 78.9748C103.13 74.6448 105.152 70.2136 109.038 68.0858L132.363 55.314C134.056 54.3868 135.981 53.9696 137.907 54.1127L168.905 56.4161C170.843 56.5602 172.781 56.1362 174.483 55.196L201.251 40.4033C202.952 39.4632 204.89 39.0392 206.828 39.1833L233.326 41.1523C237.745 41.4806 241.42 44.677 242.358 49.0069L262.441 141.679C263.844 148.157 258.672 154.184 252.056 153.779L231.257 152.505C229.405 152.391 227.559 152.795 225.924 153.671L198.838 168.177C197.203 169.053 195.356 169.457 193.505 169.343L162.336 167.434C160.497 167.322 158.663 167.719 157.036 168.583L138.612 178.362C132.757 181.47 125.554 178.125 124.15 171.647Z" fill="#1A1A1A" fill-opacity="0.04"/>
<path d="M201.5 76H175.75C168.432 76 162.5 81.9322 162.5 89.25C162.5 96.5678 168.432 102.5 175.75 102.5H196C203.456 102.5 209.5 108.544 209.5 116C209.5 123.456 203.456 129.5 196 129.5H146" stroke="#1A1A1A" stroke-width="4" stroke-linecap="round" stroke-linejoin="round" stroke-dasharray="4 8"/>
<path d="M134.5 129.5V119M134.5 119C138.366 119 141.5 115.866 141.5 112V111.5C141.5 107.634 138.366 104.5 134.5 104.5C130.634 104.5 127.5 107.634 127.5 111.5V112C127.5 115.866 130.634 119 134.5 119Z" stroke="#1A1A1A" stroke-width="4" stroke-linecap="round" stroke-linejoin="round"/>
<circle cx="248.5" cy="56.5" r="24.5" fill="#FFC700"/>
<rect x="220" y="28" width="49" height="49" rx="24.5" stroke="#1A1A1A" stroke-width="4" stroke-linecap="round" stroke-linejoin="round"/>
<path d="M211 52.5C211 33.9985 225.998 19 244.5 19C263.002 19 278 33.9985 278 52.5C278 89 244.5 110.5 244.5 110.5C244.5 110.5 211 91.5 211 52.5Z" stroke="#1A1A1A" stroke-width="4" stroke-linecap="round" stroke-linejoin="round"/>
<path d="M246.978 61.0301L254.189 43.5599C254.526 42.7439 253.717 41.9236 252.896 42.2487L235.732 49.0466M246.978 61.0301L245.36 64.9499C245.16 65.4345 244.621 65.6851 244.135 65.4902C240.157 63.8967 233.297 59.4356 231.36 51.664C231.243 51.1955 231.504 50.7213 231.953 50.5435L235.732 49.0466M246.978 61.0301C244.218 59.9019 238.105 55.9257 235.732 49.0466" stroke="#1A1A1A" stroke-width="4" stroke-linecap="round" stroke-linejoin="round"/>
<circle cx="120.5" cy="51.5" r="10.5" fill="#FFC700"/>
<path d="M104 56.082C104 49.4093 109.373 44 116 44C122.627 44 128 49.4093 128 56.082C128 69.2459 116 77 116 77C116 77 104 70.1475 104 56.082Z" stroke="#1A1A1A" stroke-width="4" stroke-linecap="round" stroke-linejoin="round"/>
<circle cx="261" cy="140" r="8" fill="#FFC700"/>
<path d="M248 139.055C248 134.606 251.582 131 256 131C260.418 131 264 134.606 264 139.055C264 147.831 256 153 256 153C256 153 248 148.432 248 139.055Z" stroke="#1A1A1A" stroke-width="4" stroke-linecap="round" stroke-linejoin="round"/>
<circle cx="88" cy="148" r="8" fill="#FFC700"/>
<path d="M85 150.055C85 145.606 88.5817 142 93 142C97.4183 142 101 145.606 101 150.055C101 158.831 93 164 93 164C93 164 85 159.432 85 150.055Z" stroke="#1A1A1A" stroke-width="4" stroke-linecap="round" stroke-linejoin="round"/>
</svg>
